Bopha! 1993 DvDRip XviD AC3 5.1 titler

Source: DVD9
 
http://www.imdb.com/title/tt0106464/
 
http://en.wikipedia.org/wiki/Bopha!
 
http://www.rottentomatoes.com/m/bopha/

Subtitles: English, Serbian, Croatian

Director: Morgan Freeman

CAST: Danny Glover, Malcolm McDowell, Alfre Woodard, Marius Weyers ...

PLOT: In this story of a black policeman during South African apartheid, Danny Glover plays the cop, who believes he's trying to help his people, even while serving as a pawn of the racist government. When his son gets involved in the anti-apartheid movement, he finds himself torn between his family (including long-suffering wife Alfre Woodard) and what he believes is his duty.



   General
----------------
      Format : AVI
      Format/Info : Audio Video Interleave
      File size : 1.36 GiB
      Duration : 1h 53mn
      Overall bit rate : 1 719 Kbps
      Writing application : FairUse Wizard - http://fairusewizard.com
      Writing library : The best and REALLY easy backup tool

   Video
----------------
      Format : MPEG-4 Visual
      Format profile : Advanced Simple@L5
      Format settings, BVOP : 1
      Format settings, QPel : No
      Format settings, GMC : No warppoints
      Format settings, Matrix : Default (H.263)
      Muxing mode : Packed bitstream
      Codec ID : XVID
      Codec ID/Hint : XviD
      Duration : 1h 53mn
      Bit rate : 1 262 Kbps
      Width : 688 pixels
      Height : 384 pixels
      Display aspect ratio : 16:9
      Frame rate : 25.000 fps
      Color space : YUV
      Chroma subsampling : 4:2:0
      Bit depth : 8 bits
      Scan type : Progressive
      Compression mode : Lossy
      Bits/(Pixel*Frame) : 0.191
      Stream size : 1.00 GiB (73%)
      Writing library : XviD 1.1.0 (UTC 2005-11-22)

   Audio
-------------------
      Format : AC-3
      Format/Info : Audio Coding 3
      Mode extension : CM (complete main)
      Format settings, Endianness : Big
      Codec ID : 2000
      Duration : 1h 53mn
      Bit rate mode : Constant
      Bit rate : 448 Kbps
      Channel(s) : 6 channels
      Channel positions : Front: L C R, Side: L R, LFE
      Sampling rate : 48.0 KHz
      Bit depth : 16 bits
      Compression mode : Lossy
      Stream size : 364 MiB (26%)
      Alignment : Split accross interleaves
      Interleave, duration : 40 ms (1.00 video frame)
      Interleave, preload duration : 500 ms